PathFileType	4	(X/Y/Z)	/Users/itak/Documents/Research/Walk-IL/dataset/trc/00492_00167.trc
DataRate	CameraRate	NumFrames	NumMarkers	Units	OrigDataRate	OrigDataStartFrame	OrigNumFrames
100.000000	100.000000	4	53	mm	100.000000	345	552
Frame#	Time	RPSI			LPSI			L3			STRN			T10			C7			CLAV			RBAK			LBAK			LSHO			LUPA			LAEL			LAOL			LWTS			LWPS			LFRA			LIFD			LHPS			LHTS			RSHO			RUPA			RAEL			RAOL			RWTS			RWPS			RFRA			RIFD			RHTS			RHPS			RBHD			LFHD			RFHD			LBHD			LHIP			RHIP			RASI			LASI			LKNE			LTHI			LANK			LTIP			LTOE			LMT1			LMT5			LHEE			RKNE			RTHI			RANK			RTIP			RTOE			RMT1			RMT5			RHEE			
		X1	Y1	Z1	X2	Y2	Z2	X3	Y3	Z3	X4	Y4	Z4	X5	Y5	Z5	X6	Y6	Z6	X7	Y7	Z7	X8	Y8	Z8	X9	Y9	Z9	X10	Y10	Z10	X11	Y11	Z11	X12	Y12	Z12	X13	Y13	Z13	X14	Y14	Z14	X15	Y15	Z15	X16	Y16	Z16	X17	Y17	Z17	X18	Y18	Z18	X19	Y19	Z19	X20	Y20	Z20	X21	Y21	Z21	X22	Y22	Z22	X23	Y23	Z23	X24	Y24	Z24	X25	Y25	Z25	X26	Y26	Z26	X27	Y27	Z27	X28	Y28	Z28	X29	Y29	Z29	X30	Y30	Z30	X31	Y31	Z31	X32	Y32	Z32	X33	Y33	Z33	X34	Y34	Z34	X35	Y35	Z35	X36	Y36	Z36	X37	Y37	Z37	X38	Y38	Z38	X39	Y39	Z39	X40	Y40	Z40	X41	Y41	Z41	X42	Y42	Z42	X43	Y43	Z43	X44	Y44	Z44	X45	Y45	Z45	X46	Y46	Z46	X47	Y47	Z47	X48	Y48	Z48	X49	Y49	Z49	X50	Y50	Z50	X51	Y51	Z51	X52	Y52	Z52	X53	Y53	Z53	

346	3.45	153.4832153320312	951.2347412109375	263.1478881835938	32.07184219360352	941.6436767578125	187.6946868896484	100.2253570556641	1049.3837890625	209.0888214111328	223.2152557373047	1232.7109375	-43.43482971191406	76.04794311523438	1170.697387695312	205.3598022460938	103.0723114013672	1437.66943359375	132.2734069824219	195.2707366943359	1346.191528320312	-22.67885208129883	154.9558258056641	1329.322509765625	243.9925079345703	3.029838562011719	1381.549682617188	110.9890975952148	-7.837846279144287	1393.95703125	-17.82789421081543	-75.11762237548828	1267.048950195312	-71.21942901611328	-34.93938064575195	1056.605590820312	-130.3043975830078	-43.86710357666016	1029.256225585938	-31.15886497497559	125.4550170898438	908.9044189453125	-171.1004638671875	65.02245330810547	868.2438354492188	-186.6535339355469	5.919753551483154	981.6639404296875	-161.0026397705078	192.7952728271484	763.6041870117188	-202.0527648925781	102.5141220092773	801.6388549804688	-204.1137390136719	165.9641265869141	837.5904541015625	-200.6674957275391	274.3595581054688	1420.672607421875	162.2684478759766	328.4523010253906	1372.236206054688	226.283203125	398.0359802246094	1101.926391601562	306.8200378417969	336.501953125	1081.939331054688	328.0436401367188	433.4792785644531	886.6964721679688	219.9699096679688	449.647216796875	882.827880859375	306.5343017578125	413.8192138671875	1045.080200195312	315.9206848144531	447.5412902832031	731.9639282226562	237.271240234375	455.3443603515625	790.255615234375	222.2729797363281	459.1045532226562	793.4048461914062	299.1110534667969	224.6229248046875	1641.395141601562	49.78165054321289	104.3997116088867	1618.955078125	-116.8825912475586	230.4127960205078	1635.537109375	-87.71192169189453	49.13446426391602	1625.77001953125	25.60998916625977	12.47018146514893	824.7576293945312	16.19124221801758	346.5684509277344	866.795654296875	230.5176239013672	333.6094665527344	904.97607421875	109.3553695678711	123.5189056396484	870.572509765625	-30.76542472839355	117.9167785644531	416.3869018554688	83.52906036376953	88.96940612792969	561.8091430664062	29.6572265625	76.32686614990234	34.18175506591797	252.5114288330078	109.7466278076172	264.7743225097656	124.6244277954102	302.2853698730469	38.84060668945312	161.6705932617188	257.2222900390625	49.98154830932617	228.2608947753906	184.9027404785156	39.82839584350586	141.2798156738281	85.01082611083984	51.48173141479492	328.7196350097656	448.9937438964844	496.8102722167969	144.7721710205078	409.455322265625	748.8190307617188	183.699462890625	489.66162109375	71.38121032714844	291.0045166015625	479.7441101074219	361.443115234375	176.8250885009766	498.9866943359375	65.59052276611328	75.13778686523438	444.7100830078125	70.15321350097656	124.0228118896484	536.8628540039062	45.97025680541992	170.4949188232422	427.7161560058594	82.06441497802734	340.4627990722656	
347	3.46	162.1608734130859	950.1441040039062	259.3539123535156	39.01839828491211	941.333984375	186.6435241699219	106.9953002929688	1048.894165039062	206.2286224365234	226.3429412841797	1231.495483398438	-49.28045272827148	83.02503967285156	1170.348388671875	202.0402984619141	109.1845169067383	1437.06494140625	127.8272552490234	199.0486907958984	1345.093505859375	-28.36676788330078	162.6680145263672	1328.689086914062	238.8330078125	8.780764579772949	1381.035766601562	107.9324645996094	-3.878131866455078	1393.296875	-20.78886795043945	-72.07340240478516	1266.37841796875	-72.91545104980469	-33.0082893371582	1055.668334960938	-131.8215179443359	-40.56072616577148	1028.674072265625	-32.45823669433594	126.5144348144531	907.56787109375	-174.5080261230469	65.84236907958984	866.9075317382812	-188.8761901855469	7.296861171722412	980.5211181640625	-162.818359375	193.2373352050781	762.0455322265625	-205.9667358398438	102.986946105957	800.1793212890625	-206.6696319580078	166.5020446777344	836.1011352539062	-204.4622039794922	280.8723449707031	1419.78369140625	155.2072296142578	335.9611206054688	1371.45458984375	218.4386138916016	407.2028198242188	1101.486938476562	298.3190307617188	346.0894165039062	1081.494384765625	320.6425170898438	441.4266052246094	885.9451904296875	211.5187072753906	459.0449829101562	882.3956298828125	297.8612670898438	423.2070007324219	1044.693237304688	307.3142700195312	455.4040222167969	731.21533203125	229.2753295898438	463.1257629394531	789.41455078125	213.88037109375	468.1731567382812	792.9157104492188	290.6468811035156	229.6618041992188	1640.400268554688	44.34927368164062	108.1545715332031	1618.333129882812	-121.3827056884766	234.4068756103516	1634.770141601562	-93.19734191894531	54.06449127197266	1625.026489257812	21.56561470031738	14.73102951049805	825.1141357421875	15.54049396514893	354.2198791503906	865.275634765625	222.0593414306641	338.4146118164062	903.905517578125	101.5890655517578	125.0571823120117	869.9945068359375	-33.72197341918945	118.166618347168	416.3429260253906	82.50926208496094	89.61799621582031	561.8960571289062	28.56006813049316	76.77108001708984	34.42165374755859	253.1022338867188	109.8793411254883	264.8616943359375	124.1159896850586	302.2028198242188	38.72431564331055	161.1465606689453	257.2686767578125	50.29981994628906	227.767578125	184.7051391601562	39.7276611328125	141.0689544677734	85.89057159423828	52.15937423706055	329.172119140625	453.8713073730469	495.5618591308594	130.4219970703125	415.8309020996094	747.5589599609375	172.7661743164062	503.6399841308594	66.51554107666016	261.5533447265625	487.0256958007812	359.876953125	157.5963592529297	507.7588195800781	68.29648590087891	45.46540451049805	454.6893310546875	70.2445068359375	95.82736206054688	548.30419921875	46.18788909912109	139.205078125	442.79931640625	74.47308349609375	312.859619140625	
348	3.47	170.7082366943359	948.921875	255.3424224853516	45.959228515625	940.9278564453125	185.2874603271484	113.6917037963867	1048.29052734375	203.2136077880859	229.5263214111328	1230.175903320312	-55.16452026367188	89.95157623291016	1169.894165039062	198.5336303710938	115.3333206176758	1436.372680664062	123.2633209228516	202.9108581542969	1343.893432617188	-34.12930679321289	170.3585815429688	1327.930053710938	233.4927520751953	14.60309791564941	1380.448974609375	104.7132415771484	0.1370258331298828	1392.569580078125	-23.87639045715332	-69.00919342041016	1265.642700195312	-74.66321563720703	-31.2042350769043	1054.6083984375	-133.2401275634766	-37.33308410644531	1028.04736328125	-33.65226745605469	127.3067626953125	905.9701538085938	-177.7943878173828	66.36691284179688	865.3345947265625	-190.8934326171875	8.496405601501465	979.2152099609375	-164.5162658691406	193.2749481201172	760.151611328125	-209.6886749267578	103.116325378418	798.4718627929688	-209.0006713867188	166.6731872558594	834.30859375	-208.1186218261719	287.3520812988281	1418.749145507812	148.0735168457031	343.4233703613281	1370.506958007812	210.5055999755859	416.3106079101562	1100.89794921875	289.7060241699219	355.6164245605469	1080.883178710938	313.0939331054688	449.4773559570312	885.0791625976562	202.9712524414062	468.4230346679688	881.8484497070312	289.0978698730469	432.5394287109375	1044.162841796875	298.6001586914062	463.4934387207031	730.3678588867188	221.1949310302734	471.0816345214844	788.4815063476562	205.4127044677734	477.3234252929688	792.3163452148438	282.0942993164062	234.7449951171875	1639.322265625	38.81635665893555	111.9426040649414	1617.630737304688	-125.9579620361328	238.4244384765625	1633.937866210938	-98.77676391601562	59.03584289550781	1624.160400390625	17.44078063964844	17.20864105224609	825.4088745117188	14.65211486816406	361.6893310546875	863.6724853515625	213.6393737792969	343.2105712890625	902.76953125	93.932373046875	126.8454208374023	869.3263549804688	-36.7326545715332	118.5530090332031	416.2756652832031	81.48717498779297	90.50930786132812	561.9454345703125	27.38332557678223	77.25908660888672	34.68409729003906	253.8011627197266	110.1359939575195	264.9436950683594	123.579345703125	302.1802978515625	38.65592575073242	160.5347595214844	257.3579711914062	50.60686111450195	227.2489624023438	184.5166168212891	39.67555236816406	140.8764801025391	86.88259124755859	52.86455535888672	329.7057495117188	458.4600524902344	494.3128051757812	116.3578643798828	422.05126953125	746.2643432617188	161.9423980712891	516.1681518554688	61.94863128662109	231.5578308105469	493.6941223144531	358.432373046875	138.5366973876953	515.450439453125	71.26390838623047	15.63993835449219	463.5791015625	70.73283386230469	67.25200653076172	558.3821411132812	46.61677169799805	107.6844253540039	456.4044799804688	67.26228332519531	284.4507141113281	
349	3.48	179.1320648193359	947.6015014648438	251.0901947021484	52.88686752319336	940.4392700195312	183.6157073974609	120.3530349731445	1047.574829101562	200.0175323486328	232.7663269042969	1228.755737304688	-61.09626007080078	96.84395599365234	1169.32568359375	194.8408508300781	121.5250244140625	1435.576171875	118.5763473510742	206.8434143066406	1342.597900390625	-39.96328735351562	178.0277404785156	1327.046264648438	227.9933471679688	20.50165367126465	1379.790283203125	101.3387451171875	4.214528560638428	1391.77294921875	-27.09178733825684	-65.91109466552734	1264.842651367188	-76.47350311279297	-29.5110034942627	1053.429809570312	-134.5852813720703	-34.17176818847656	1027.376708984375	-34.77145385742188	127.8493041992188	904.1070556640625	-180.9572601318359	66.61197662353516	863.530517578125	-192.7129516601562	9.527813911437988	977.7481079101562	-166.1052703857422	192.9140014648438	757.9102172851562	-213.1936798095703	102.9094619750977	796.5121459960938	-211.1025238037109	166.4970245361328	832.2086181640625	-211.6159515380859	293.8116149902344	1417.569091796875	140.8776702880859	350.8368225097656	1369.390747070312	202.4998474121094	425.3503112792969	1100.148803710938	280.9912109375	365.068603515625	1080.0966796875	305.403564453125	457.5977172851562	884.0989379882812	194.3165130615234	477.7801818847656	881.1830444335938	280.2359008789062	441.8023071289062	1043.478637695312	289.7875671386719	471.8296508789062	729.426513671875	212.997802734375	479.212158203125	787.4649047851562	196.8459625244141	486.5701293945312	791.6095581054688	273.4324035644531	239.8878021240234	1638.163696289062	33.17815017700195	115.7639465332031	1616.843994140625	-130.6052398681641	242.4701690673828	1633.032958984375	-104.4498977661133	64.05261993408203	1623.173583984375	13.23647499084473	19.89175605773926	825.632568359375	13.51606845855713	368.9913330078125	862.00830078125	205.2553863525391	348.0185546875	901.5765380859375	86.34489440917969	128.8521881103516	868.5398559570312	-39.81055450439453	119.0778961181641	416.1785583496094	80.47140502929688	91.63658905029297	561.9397583007812	26.1142692565918	77.79139709472656	34.97677993774414	254.59716796875	110.5096969604492	265.0207824707031	123.0220489501953	302.2224731445312	38.6286506652832	159.8467102050781	257.5028991699219	50.88887786865234	226.7192687988281	184.3408813476562	39.6628532409668	140.7089080810547	87.99372863769531	53.58742904663086	330.3144836425781	462.7908020019531	493.0608215332031	102.6296539306641	428.112060546875	744.9295043945312	151.2661590576172	527.2940673828125	57.69401550292969	201.1476440429688	499.7966613769531	357.1076049804688	119.7037200927734	522.10791015625	74.52317810058594	-14.24842071533203	471.3948974609375	71.65702056884766	38.4088249206543	567.1452026367188	47.24263381958008	76.03323364257812	468.5709533691406	60.47903442382812	255.386474609375	
